PathFileType	4	(X/Y/Z)	D:\TRACE\spotREDO_2-26-24\spot_baseline_1-platform.trc
DataRate	CameraRate	NumFrames	NumMarkers	Units	OrigDataRate	OrigDataStartFrame	OrigNumFrames
100.00	100.00	      38	5	mm	100.00	1	      7000
Frame#	Time	Left_Front			Right_Front			Left_Aft			Right_Aft			Post			
		X1	Y1	Z1	X2	Y2	Z2	X3	Y3	Z3	X4	Y4	Z4	X5	Y5	Z5	

1	0.000	-696.86487	-3.90528	-575.66681	717.99872	5.00786	-490.98734	-768.15198	4.76868	643.60052	801.29913	11.05830	647.53131	4.46560	741.34241	-982.94342	
2	0.010	-696.86694	-3.90399	-575.68488	718.10730	4.85096	-490.89453	-768.13336	4.74155	643.56653	801.28595	11.12088	647.49902	4.46767	741.36511	-982.89429	
3	0.020	-696.86713	-3.87090	-575.68500	718.10358	4.84592	-490.91959	-768.16229	4.74913	643.56824	801.22253	11.31656	647.82648	4.45568	741.34412	-982.87146	
4	0.030	-696.88483	-3.90925	-575.66388	718.08850	4.82531	-490.89273	-768.13593	4.74027	643.57257	801.30322	11.14244	647.53253	4.44291	741.34747	-982.80597	
5	0.040	-696.90131	-3.90126	-575.67792	718.06415	4.81959	-490.92297	-768.18231	4.73570	643.58063	801.34674	11.09901	647.54034	4.41747	741.32947	-982.81311	
6	0.050	-696.89215	-3.89670	-575.67090	718.08563	4.81752	-490.90140	-768.16907	4.73779	643.56897	801.29755	11.09632	647.49139	4.43104	741.36432	-982.83142	
7	0.060	-696.85583	-3.93188	-575.69556	718.09033	4.83505	-490.92117	-768.16162	4.77327	643.60565	801.35870	11.05584	647.50452	4.47522	741.37622	-982.87714	
8	0.070	-696.85602	-3.91469	-575.69696	717.99158	4.98530	-490.99631	-768.14990	4.72299	643.57440	801.32269	11.14652	647.51233	4.49720	741.37164	-982.94135	
9	0.080	-696.87463	-3.91286	-575.66766	718.10083	4.85440	-490.90527	-768.14185	4.72263	643.56781	801.28961	11.04037	647.50739	4.48366	741.32214	-982.95782	
10	0.090	-696.87177	-3.88366	-575.65558	718.07019	4.81763	-490.87421	-768.14838	4.71008	643.60303	801.22406	11.01389	647.49506	4.47289	741.30328	-983.00293	
11	0.100	-696.89728	-3.88828	-575.68579	718.08771	4.84098	-490.87061	-768.16571	4.78123	643.57593	801.32690	11.07393	647.48352	4.54860	741.31183	-983.01257	
12	0.110	-696.85046	-3.91419	-575.66846	718.11096	4.87777	-490.87592	-768.18066	4.75858	643.57697	801.27673	11.14832	647.56635	4.52580	741.31250	-983.00171	
13	0.120	-696.89233	-3.89361	-575.69159	718.10712	4.84957	-490.88940	-768.15295	4.78018	643.58063	801.38379	11.15010	647.53876	4.49819	741.30896	-982.99805	
14	0.130	-696.86255	-3.91150	-575.65094	717.97797	4.98453	-490.98782	-768.18005	4.77114	643.59863	801.26581	11.32949	647.79730	4.48620	741.35364	-982.92126	
15	0.140	-696.90869	-3.87609	-575.68579	718.07385	4.83379	-490.92017	-768.13342	4.74603	643.58307	801.33655	11.09435	647.53363	4.49288	741.36163	-982.90656	
16	0.150	-696.91522	-3.89525	-575.66302	717.99780	4.96449	-491.04779	-768.12531	4.74342	643.58002	801.24670	11.31185	647.81836	4.50894	741.35291	-982.89691	
17	0.160	-696.89941	-3.88114	-575.66437	718.11365	4.86540	-490.89594	-768.16321	4.73174	643.58807	801.26294	11.33757	647.83264	4.43693	741.36664	-982.86646	
18	0.170	-696.86035	-3.92270	-575.67273	718.06854	4.84467	-490.91843	-768.18396	4.74650	643.56097	801.22681	11.08560	647.52606	4.45327	741.34869	-982.87152	
19	0.180	-696.89221	-3.86298	-575.66681	718.13696	4.87488	-490.85907	-768.19470	4.77088	643.58698	801.30475	11.11471	647.54651	4.45865	741.38226	-982.83081	
20	0.190	-696.84802	-3.90358	-575.67786	718.10773	4.85361	-490.89560	-768.01746	4.92978	643.71692	801.28113	11.08085	647.50653	4.45165	741.36340	-982.86188	
21	0.200	-696.89191	-3.90966	-575.65704	718.05908	4.83601	-490.93613	-768.16766	4.74677	643.59589	801.26776	11.08063	647.52460	4.47052	741.35315	-982.89404	
22	0.210	-696.89136	-3.90778	-575.67432	718.08966	4.84144	-490.89600	-768.12756	4.74208	643.59473	801.25775	11.33072	647.80078	4.48536	741.32336	-982.90240	
23	0.220	-696.87048	-3.89064	-575.68915	718.03448	4.84698	-490.93817	-768.15472	4.76431	643.60260	801.27393	11.35028	647.81091	4.47477	741.32861	-982.93817	
24	0.230	-696.90778	-3.89559	-575.66766	718.04327	4.90013	-490.90213	-768.13135	4.87863	643.62946	801.25006	11.11312	647.52789	4.49189	741.35315	-982.95160	
25	0.240	-696.88147	-3.86187	-575.66931	718.02521	5.02093	-491.03931	-768.10681	4.85852	643.61603	801.31470	11.42124	647.84021	4.50457	741.35889	-982.97980	
26	0.250	-696.90228	-3.86659	-575.67700	718.08533	4.84847	-490.90546	-768.08875	4.85627	643.64960	801.24738	11.00714	647.53326	4.47796	741.35724	-982.96741	
27	0.260	-696.89087	-3.89852	-575.65643	718.05017	4.90128	-490.89664	-768.15692	4.75698	643.63837	801.24945	10.98853	647.53729	4.55152	741.34692	-982.95496	
28	0.270	-696.92291	-3.86775	-575.66956	718.22333	4.97186	-490.82184	-768.17780	4.72255	643.56610	801.30823	11.02172	647.45892	4.46518	741.36493	-982.95654	
29	0.280	-696.91296	-3.87473	-575.67950	718.26898	4.96431	-490.74530	-768.16193	4.76310	643.59290	801.27588	11.06343	647.50159	4.38538	741.40656	-982.83087	
30	0.290	-696.89441	-3.90524	-575.68781	718.16718	4.92607	-490.77856	-768.14233	4.84804	643.62244	801.37274	11.15325	647.53876	4.38816	741.39984	-982.80670	
31	0.300	-696.91791	-3.90326	-575.65906	718.22363	4.89796	-490.73773	-768.15399	4.82198	643.61481	801.27185	11.40988	647.80878	4.44933	741.37109	-982.77478	
32	0.310	-696.86523	-3.96304	-575.65344	718.09009	5.10928	-490.92801	-768.15088	4.83745	643.63953	801.22748	11.06551	647.48138	4.40948	741.34760	-982.74915	
33	0.320	-696.87366	-3.94751	-575.65094	718.21222	4.88294	-490.79120	-768.13544	4.80637	643.61249	801.19580	11.28915	647.80939	4.41851	741.40729	-982.77838	
34	0.330	-696.88647	-3.89372	-575.67609	718.21869	4.90258	-490.78790	-768.14728	4.75941	643.60339	801.29425	11.00057	647.50885	4.42620	741.38519	-982.84131	
35	0.340	-696.90747	-3.88126	-575.66888	718.20538	4.93391	-490.80209	-768.15546	4.78441	643.61041	801.26520	11.07361	647.50470	4.48549	741.37830	-982.91986	
36	0.350	-696.85779	-3.88749	-575.66870	718.21906	4.95025	-490.78464	-768.15393	4.77393	643.60309	801.27490	11.04352	647.52991	4.47338	741.38641	-982.97308	
37	0.360	-696.87384	-3.90723	-575.68103	718.22998	4.95265	-490.82086	-768.13837	4.79061	643.59613	801.24500	10.95035	647.46442	4.49511	741.37885	-982.94348	
38	0.370	-696.88721	-3.89794	-575.67352	718.22253	4.93770	-490.77414	-768.18628	4.77298	643.60114	801.28510	11.06654	647.48004	4.45927	741.36841	-982.95642	
